<svg width="100" height="100" viewBox="0 0 100 100" fill="none" xmlns="http://www.w3.org/2000/svg">
<rect width="100" height="100" rx="14" fill="url(#paint0_linear_90019_94)"/>
<g filter="url(#filter0_ddi_90019_94)">
<mask id="path-2-inside-1_90019_94" fill="white">
<path d="M23.0381 65V35.84H35.7981C38.7315 35.84 41.1981 36.4533 43.1981 37.68C45.2248 38.9067 46.7581 40.6133 47.7981 42.8C48.8381 44.9867 49.3581 47.5333 49.3581 50.44C49.3581 52.6 49.0648 54.5733 48.4781 56.36C47.8915 58.1467 47.0115 59.6933 45.8381 61C44.6915 62.28 43.2781 63.2667 41.5981 63.96C39.9181 64.6533 37.9848 65 35.7981 65H23.0381ZM30.1981 58.92H34.5981C35.6381 58.92 36.5981 58.8 37.4781 58.56C38.3848 58.2933 39.1715 57.84 39.8381 57.2C40.5315 56.56 41.0648 55.68 41.4381 54.56C41.8381 53.44 42.0381 52.0133 42.0381 50.28C42.0381 48.0933 41.7048 46.4 41.0381 45.2C40.3981 43.9733 39.5181 43.12 38.3981 42.64C37.3048 42.16 36.0381 41.92 34.5981 41.92H30.1981V58.92ZM49.4531 65L59.9731 49.44L50.4531 35.84H58.8931L64.4931 44.84H64.6931L70.2931 35.84H78.7331L69.4131 49.4L79.9331 65H71.4531L64.6931 54.56H64.4931L57.7331 65H49.4531Z"/>
</mask>
<path d="M23.0381 65V35.84H35.7981C38.7315 35.84 41.1981 36.4533 43.1981 37.68C45.2248 38.9067 46.7581 40.6133 47.7981 42.8C48.8381 44.9867 49.3581 47.5333 49.3581 50.44C49.3581 52.6 49.0648 54.5733 48.4781 56.36C47.8915 58.1467 47.0115 59.6933 45.8381 61C44.6915 62.28 43.2781 63.2667 41.5981 63.96C39.9181 64.6533 37.9848 65 35.7981 65H23.0381ZM30.1981 58.92H34.5981C35.6381 58.92 36.5981 58.8 37.4781 58.56C38.3848 58.2933 39.1715 57.84 39.8381 57.2C40.5315 56.56 41.0648 55.68 41.4381 54.56C41.8381 53.44 42.0381 52.0133 42.0381 50.28C42.0381 48.0933 41.7048 46.4 41.0381 45.2C40.3981 43.9733 39.5181 43.12 38.3981 42.64C37.3048 42.16 36.0381 41.92 34.5981 41.92H30.1981V58.92ZM49.4531 65L59.9731 49.44L50.4531 35.84H58.8931L64.4931 44.84H64.6931L70.2931 35.84H78.7331L69.4131 49.4L79.9331 65H71.4531L64.6931 54.56H64.4931L57.7331 65H49.4531Z" fill="black"/>
<path d="M23.0381 65H22.0381V66H23.0381V65ZM23.0381 35.84V34.84H22.0381V35.84H23.0381ZM43.1981 37.68L42.6753 38.5325L42.6803 38.5355L43.1981 37.68ZM47.7981 42.8L46.8951 43.2295L47.7981 42.8ZM48.4781 56.36L49.4282 56.672L48.4781 56.36ZM45.8381 61L45.0941 60.3319L45.0933 60.3328L45.8381 61ZM41.5981 63.96L41.9796 64.8844L41.5981 63.96ZM30.1981 58.92H29.1981V59.92H30.1981V58.92ZM37.4781 58.56L37.7412 59.5248L37.7508 59.5222L37.7603 59.5194L37.4781 58.56ZM39.8381 57.2L39.1598 56.4652L39.1527 56.4718L39.1456 56.4786L39.8381 57.2ZM41.4381 54.56L40.4964 54.2237L40.4928 54.2337L40.4894 54.2438L41.4381 54.56ZM41.0381 45.2L40.1515 45.6626L40.1576 45.6742L40.164 45.6856L41.0381 45.2ZM38.3981 42.64L37.9961 43.5557L38.0042 43.5591L38.3981 42.64ZM30.1981 41.92V40.92H29.1981V41.92H30.1981ZM23.0381 65H24.0381V35.84H23.0381H22.0381V65H23.0381ZM23.0381 35.84V36.84H35.7981V35.84V34.84H23.0381V35.84ZM35.7981 35.84V36.84C38.5928 36.84 40.8676 37.4237 42.6753 38.5324L43.1981 37.68L43.721 36.8276C41.5286 35.4829 38.8701 34.84 35.7981 34.84V35.84ZM43.1981 37.68L42.6803 38.5355C44.5358 39.6585 45.9371 41.2153 46.8951 43.2295L47.7981 42.8L48.7012 42.3705C47.5792 40.0114 45.9138 38.1548 43.7159 36.8245L43.1981 37.68ZM47.7981 42.8L46.8951 43.2295C47.8597 45.2578 48.3581 47.6526 48.3581 50.44H49.3581H50.3581C50.3581 47.4141 49.8165 44.7156 48.7012 42.3705L47.7981 42.8ZM49.3581 50.44H48.3581C48.3581 52.5095 48.0771 54.3758 47.528 56.048L48.4781 56.36L49.4282 56.672C50.0524 54.7709 50.3581 52.6905 50.3581 50.44H49.3581ZM48.4781 56.36L47.528 56.048C46.9815 57.7124 46.1684 59.1355 45.0941 60.3319L45.8381 61L46.5822 61.6681C47.8546 60.2511 48.8014 58.5809 49.4282 56.672L48.4781 56.36ZM45.8381 61L45.0933 60.3328C44.0526 61.4944 42.7659 62.3962 41.2166 63.0356L41.5981 63.96L41.9796 64.8844C43.7903 64.1371 45.3303 63.0656 46.583 61.6672L45.8381 61ZM41.5981 63.96L41.2166 63.0356C39.6795 63.67 37.8799 64 35.7981 64V65V66C38.0897 66 40.1567 65.6367 41.9796 64.8844L41.5981 63.96ZM35.7981 65V64H23.0381V65V66H35.7981V65ZM30.1981 58.92V59.92H34.5981V58.92V57.92H30.1981V58.92ZM34.5981 58.92V59.92C35.7148 59.92 36.7645 59.7912 37.7412 59.5248L37.4781 58.56L37.215 57.5952C36.4318 57.8088 35.5614 57.92 34.5981 57.92V58.92ZM37.4781 58.56L37.7603 59.5194C38.8172 59.2085 39.7456 58.6751 40.5307 57.9214L39.8381 57.2L39.1456 56.4786C38.5973 57.0049 37.9523 57.3782 37.196 57.6006L37.4781 58.56ZM39.8381 57.2L40.5164 57.9348C41.3612 57.155 41.9733 56.1168 42.3868 54.8762L41.4381 54.56L40.4894 54.2438C40.1563 55.2432 39.7018 55.965 39.1598 56.4652L39.8381 57.2ZM41.4381 54.56L42.3799 54.8963C42.8317 53.6311 43.0381 52.0803 43.0381 50.28H42.0381H41.0381C41.0381 51.9464 40.8445 53.2489 40.4964 54.2237L41.4381 54.56ZM42.0381 50.28H43.0381C43.0381 48.0142 42.6965 46.126 41.9123 44.7144L41.0381 45.2L40.164 45.6856C40.7131 46.674 41.0381 48.1725 41.0381 50.28H42.0381ZM41.0381 45.2L41.9247 44.7374C41.1933 43.3356 40.1525 42.3039 38.792 41.7209L38.3981 42.64L38.0042 43.5591C38.8838 43.9361 39.6029 44.6111 40.1515 45.6626L41.0381 45.2ZM38.3981 42.64L38.8001 41.7244C37.5568 41.1785 36.1486 40.92 34.5981 40.92V41.92V42.92C35.9277 42.92 37.0528 43.1415 37.9961 43.5556L38.3981 42.64ZM34.5981 41.92V40.92H30.1981V41.92V42.92H34.5981V41.92ZM30.1981 41.92H29.1981V58.92H30.1981H31.1981V41.92H30.1981ZM49.4531 65L48.6247 64.4399L47.5699 66H49.4531V65ZM59.9731 49.44L60.8016 50.0001L61.1869 49.4302L60.7924 48.8665L59.9731 49.44ZM50.4531 35.84V34.84H48.5325L49.6339 36.4135L50.4531 35.84ZM58.8931 35.84L59.7422 35.3117L59.4487 34.84H58.8931V35.84ZM64.4931 44.84L63.6441 45.3683L63.9376 45.84H64.4931V44.84ZM64.6931 44.84V45.84H65.2487L65.5422 45.3683L64.6931 44.84ZM70.2931 35.84V34.84H69.7376L69.4441 35.3117L70.2931 35.84ZM78.7331 35.84L79.5572 36.4064L80.6339 34.84H78.7331V35.84ZM69.4131 49.4L68.589 48.8336L68.2034 49.3946L68.584 49.9591L69.4131 49.4ZM79.9331 65V66H81.8136L80.7622 64.4409L79.9331 65ZM71.4531 65L70.6137 65.5435L70.9093 66H71.4531V65ZM64.6931 54.56L65.5325 54.0165L65.2369 53.56H64.6931V54.56ZM64.4931 54.56V53.56H63.9493L63.6537 54.0165L64.4931 54.56ZM57.7331 65V66H58.2769L58.5725 65.5435L57.7331 65ZM49.4531 65L50.2816 65.5601L60.8016 50.0001L59.9731 49.44L59.1447 48.8799L48.6247 64.4399L49.4531 65ZM59.9731 49.44L60.7924 48.8665L51.2724 35.2665L50.4531 35.84L49.6339 36.4135L59.1539 50.0135L59.9731 49.44ZM50.4531 35.84V36.84H58.8931V35.84V34.84H50.4531V35.84ZM58.8931 35.84L58.0441 36.3683L63.6441 45.3683L64.4931 44.84L65.3422 44.3117L59.7422 35.3117L58.8931 35.84ZM64.4931 44.84V45.84H64.6931V44.84V43.84H64.4931V44.84ZM64.6931 44.84L65.5422 45.3683L71.1422 36.3683L70.2931 35.84L69.4441 35.3117L63.8441 44.3117L64.6931 44.84ZM70.2931 35.84V36.84H78.7331V35.84V34.84H70.2931V35.84ZM78.7331 35.84L77.909 35.2736L68.589 48.8336L69.4131 49.4L70.2372 49.9664L79.5572 36.4064L78.7331 35.84ZM69.4131 49.4L68.584 49.9591L79.104 65.5591L79.9331 65L80.7622 64.4409L70.2422 48.8409L69.4131 49.4ZM79.9331 65V64H71.4531V65V66H79.9331V65ZM71.4531 65L72.2925 64.4565L65.5325 54.0165L64.6931 54.56L63.8537 55.1035L70.6137 65.5435L71.4531 65ZM64.6931 54.56V53.56H64.4931V54.56V55.56H64.6931V54.56ZM64.4931 54.56L63.6537 54.0165L56.8937 64.4565L57.7331 65L58.5725 65.5435L65.3325 55.1035L64.4931 54.56ZM57.7331 65V64H49.4531V65V66H57.7331V65Z" fill="#1C1C21" mask="url(#path-2-inside-1_90019_94)"/>
</g>
<defs>
<filter id="filter0_ddi_90019_94" x="9.64197" y="30.0988" width="83.6873" height="55.9522" filterUnits="userSpaceOnUse" color-interpolation-filters="sRGB">
<feFlood flood-opacity="0" result="BackgroundImageFix"/>
<feColorMatrix in="SourceAlpha" type="matrix" values="0 0 0 0 0 0 0 0 0 0 0 0 0 0 0 0 0 0 127 0" result="hardAlpha"/>
<feMorphology radius="1" operator="dilate" in="SourceAlpha" result="effect1_dropShadow_90019_94"/>
<feOffset/>
<feComposite in2="hardAlpha" operator="out"/>
<feColorMatrix type="matrix" values="0 0 0 0 0.784314 0 0 0 0 0.858824 0 0 0 0 0.917647 0 0 0 1 0"/>
<feBlend mode="normal" in2="BackgroundImageFix" result="effect1_dropShadow_90019_94"/>
<feColorMatrix in="SourceAlpha" type="matrix" values="0 0 0 0 0 0 0 0 0 0 0 0 0 0 0 0 0 0 127 0" result="hardAlpha"/>
<feMorphology radius="5.74118" operator="erode" in="SourceAlpha" result="effect2_dropShadow_90019_94"/>
<feOffset dy="7.6549"/>
<feGaussianBlur stdDeviation="9.56865"/>
<feComposite in2="hardAlpha" operator="out"/>
<feColorMatrix type="matrix" values="0 0 0 0 0.788235 0 0 0 0 0.858824 0 0 0 0 0.917647 0 0 0 0.32 0"/>
<feBlend mode="normal" in2="effect1_dropShadow_90019_94" result="effect2_dropShadow_90019_94"/>
<feBlend mode="normal" in="SourceGraphic" in2="effect2_dropShadow_90019_94" result="shape"/>
<feColorMatrix in="SourceAlpha" type="matrix" values="0 0 0 0 0 0 0 0 0 0 0 0 0 0 0 0 0 0 127 0" result="hardAlpha"/>
<feOffset dy="3.82745"/>
<feGaussianBlur stdDeviation="4"/>
<feComposite in2="hardAlpha" operator="arithmetic" k2="-1" k3="1"/>
<feColorMatrix type="matrix" values="0 0 0 0 0.0470588 0 0 0 0 0.286275 0 0 0 0 0.52549 0 0 0 0.04 0"/>
<feBlend mode="normal" in2="shape" result="effect3_innerShadow_90019_94"/>
</filter>
<linearGradient id="paint0_linear_90019_94" x1="50" y1="0" x2="50" y2="100" gradientUnits="userSpaceOnUse">
<stop stop-color="#EBF3FA"/>
<stop offset="1" stop-color="#DFEDFA"/>
</linearGradient>
</defs>
</svg>
